<svg xmlns="http://www.w3.org/2000/svg" xmlns:xlink="http://www.w3.org/1999/xlink" fill="none" version="1.1" width="159.99998474121094" height="160" viewBox="0 0 159.99998474121094 160"><g style="mix-blend-mode:passthrough"><g style="mix-blend-mode:passthrough"><g style="mix-blend-mode:passthrough" transform="matrix(0.997401773929596,-0.07203907519578934,0.06754520535469055,0.9977162480354309,-1.6619699646482644,2.389082786460591)"><path d="M33.15662228125,76.77006775436402C32.71769028125,83.72216775436402,38.27075828125,89.58596775436402,45.23643828125,89.52576775436401L96.07263828125,89.08666775436402C102.37473828125,89.03226775436401,107.56093828125,84.11176775436402,107.94643828125,77.82116775436401L109.53233828125,51.94606775436401L110.33773828125,38.80576775436401L110.59933828125,35.08371775436402C110.94133828125,30.218417754364012,106.88753828125,26.181973754364012,102.02373828125,26.544895754364013L46.50073828125,30.687867754364014C40.54019828125,31.132627754364012,35.81572828125,35.89606775436401,35.41995828125,41.86006775436401L34.20043828125,60.237567754364015L33.15662228125,76.77006775436402Z" fill="#FAAD14" fill-opacity="1"/><path d="M45.23643828125,89.52576775436401C38.27075828125,89.58596775436402,32.71769028125,83.72216775436402,33.15662228125,76.77006775436402L34.20043828125,60.237567754364015L35.41995828125,41.86006775436401C35.81572828125,35.89606775436401,40.54019828125,31.132627754364012,46.50073828125,30.687867754364014L102.02373828125,26.544895754364013C106.88753828125,26.181973754364012,110.94133828125,30.218417754364012,110.59933828125,35.08371775436402L110.33773828125,38.80576775436401L109.53233828125,51.94606775436401L107.94643828125,77.82116775436401C107.56093828125,84.11176775436402,102.37473828125,89.03226775436401,96.07263828125,89.08666775436402L45.23643828125,89.52576775436401ZM37.62846828125,80.31016775436402Q37.04082828125,78.730167754364,37.14867828125,77.022167754364L38.19165828125,60.50246775436401L39.41118828125,42.12486775436402Q39.60906828125,39.14286775436401,41.71357828125,37.02106775436401Q43.81813828125,34.89915775436401,46.79833828125,34.676787754364014L102.32143828125,30.533807754364013Q104.14533828125,30.397707754364014,105.44143828125,31.688217754364015Q106.73743828125,32.978727754364016,106.60923828125,34.80321775436401L106.34523828125,38.56106775436402L105.53983828125,51.701367754364014L103.95393828125,77.57656775436402Q103.76113828125,80.72186775436401,101.47513828125,82.89066775436402Q99.18913828125,85.05956775436401,96.03803828125001,85.08686775436402L45.20183828125,85.52596775436402Q43.49053828125,85.54076775436401,41.94480828125,84.868067754364Q40.45240828125,84.21856775436402,39.32412828125,83.02716775436402Q38.19583828125,81.83566775436401,37.62846828125,80.31016775436402Z" fill-rule="evenodd" fill="#2F2F2F" fill-opacity="1"/></g><g style="mix-blend-mode:passthrough"><path d="M36.348583698272705,45.533077239990234L36.348583698272705,90.16527723999023C36.348583698272705,95.68817723999024,40.82573369827271,100.16527723999023,46.348583698272705,100.16527723999023L112.3442836982727,100.16527723999023C117.86708369827271,100.16527723999023,122.3442836982727,95.68817723999024,122.3442836982727,90.16527723999023L122.3442836982727,45.533077239990234C122.3442836982727,40.010227239990236,117.86708369827271,35.533077239990234,112.3442836982727,35.533077239990234L46.348583698272705,35.533077239990234C40.82573369827271,35.533077239990234,36.348583698272705,40.010227239990236,36.348583698272705,45.533077239990234Z" fill="#FAAD14" fill-opacity="1"/><path d="M36.348583698272705,90.16527723999023L36.348583698272705,45.533077239990234C36.348583698272705,40.010227239990236,40.82573369827271,35.533077239990234,46.348583698272705,35.533077239990234L112.3442836982727,35.533077239990234C117.86708369827271,35.533077239990234,122.3442836982727,40.010227239990236,122.3442836982727,45.533077239990234L122.3442836982727,90.16527723999023C122.3442836982727,95.68817723999024,117.86708369827271,100.16527723999023,112.3442836982727,100.16527723999023L46.348583698272705,100.16527723999023C40.82573369827271,100.16527723999023,36.348583698272705,95.68817723999024,36.348583698272705,90.16527723999023ZM40.348583698272705,90.16527723999023L40.348583698272705,45.533077239990234Q40.348583698272705,43.04779723999023,42.105943698272704,41.29043723999023Q43.8633036982727,39.533077239990234,46.348583698272705,39.533077239990234L112.3442836982727,39.533077239990234Q114.82948369827271,39.533077239990234,116.5868836982727,41.29043723999023Q118.3442836982727,43.04779723999023,118.3442836982727,45.533077239990234L118.3442836982727,90.16527723999023Q118.3442836982727,92.65057723999024,116.5868836982727,94.40797723999023Q114.82948369827271,96.16527723999023,112.3442836982727,96.16527723999023L46.348583698272705,96.16527723999023Q43.8633036982727,96.16527723999023,42.105943698272704,94.40797723999023Q40.348583698272705,92.65057723999024,40.348583698272705,90.16527723999023Z" fill-rule="evenodd" fill="#2F2F2F" fill-opacity="1"/></g><g style="mix-blend-mode:passthrough"><ellipse cx="106.73476219177246" cy="67.84919261932373" rx="3.578062057495117" ry="3.693270683288574" fill="#000000" fill-opacity="1"/><ellipse cx="106.73476219177246" cy="67.84919261932373" rx="3.078062057495117" ry="3.193270683288574" fill-opacity="0" stroke-opacity="1" stroke="#2F2F2F" fill="none" stroke-width="1"/></g><g style="mix-blend-mode:passthrough"><rect x="104.5101089477539" y="32.30027484893799" width="6.532682418823242" height="3.23280930519104" rx="0" fill="#FAAD14" fill-opacity="1"/></g></g><g style="mix-blend-mode:passthrough"><path d="M14.4206,127.47183754882812C14.4206,133.35073754882814,18.5039,137.47053754882813,24.3008,137.47053754882813C28.9766,137.47053754882813,32.513,134.86383754882812,33.625,130.60733754882813L28.3659,130.60733754882813C27.5547,132.28433754882812,26.069,133.13203754882812,24.2461,133.13203754882812C21.3112,133.13203754882812,19.2878,130.94453754882812,19.2878,127.47183754882812C19.2878,123.99923754882812,21.3112,121.81173754882812,24.2461,121.81173754882812C26.069,121.81173754882812,27.5547,122.65933754882812,28.3659,124.33643754882813L33.625,124.33643754882813C32.513,120.07993754882813,28.9766,117.44583754882812,24.3008,117.44583754882812C18.5039,117.44583754882812,14.4206,121.59293754882813,14.4206,127.47183754882812ZM52.1003,129.51353754882814C52.1003,124.56433754882812,48.5729,121.48363754882813,43.9792,121.48363754882813C39.4219,121.48363754882813,35.8672,124.56433754882812,35.8672,129.51353754882814C35.8672,134.47183754882812,39.3307,137.55263754882813,43.9245,137.55263754882813C48.5182,137.55263754882813,52.1003,134.47183754882812,52.1003,129.51353754882814ZM40.7344,129.51353754882814C40.7344,126.85203754882812,42.2474,125.62163754882812,43.9792,125.62163754882812C45.6654,125.62163754882812,47.2331,126.85203754882812,47.2331,129.51353754882814C47.2331,132.14763754882813,45.638,133.40543754882813,43.9245,133.40543754882813C42.1927,133.40543754882813,40.7344,132.14763754882813,40.7344,129.51353754882814ZM54.8984,137.32473754882812L59.6836,137.32473754882812L59.6836,121.70233754882813L54.8984,121.70233754882813L54.8984,137.32473754882812ZM57.3047,120.07993754882813C58.9909,120.07993754882813,60.1302,118.93153754882812,60.1302,117.50053754882812C60.1302,116.05129754882813,58.9909,114.90285754882812,57.3047,114.90285754882812C55.6003,114.90285754882812,54.4518,116.05129754882813,54.4518,117.50053754882812C54.4518,118.93153754882812,55.6003,120.07993754882813,57.3047,120.07993754882813ZM73.8476,137.32473754882812L78.6055,137.32473754882812L78.6055,128.20103754882814C78.6055,123.99923754882812,76.1992,121.53823754882812,72.5898,121.53823754882812C70.4844,121.53823754882812,68.8073,122.45883754882813,67.8503,123.78043754882813L67.8503,121.70233754882813L63.0651,121.70233754882813L63.0651,137.32473754882812L67.8503,137.32473754882812L67.8503,128.84813754882813C67.8503,126.71533754882813,69.026,125.53953754882812,70.849,125.53953754882812C72.6719,125.53953754882812,73.8476,126.71533754882813,73.8476,128.84813754882813L73.8476,137.32473754882812ZM86.5169,126.46013754882813L86.5169,121.53823754882812L89.1237,121.53823754882812C91.0286,121.53823754882812,91.8398,122.48623754882813,91.8398,123.99923754882812C91.8398,125.51223754882812,91.0286,126.46013754882813,89.1237,126.46013754882813L86.5169,126.46013754882813ZM96.7161,123.99923754882812C96.7161,120.38983754882813,94.3008,117.67373754882813,89.4883,117.67373754882813L81.7318,117.67373754882813L81.7318,137.32473754882812L86.5169,137.32473754882812L86.5169,130.27003754882813L89.4883,130.27003754882813C94.5013,130.27003754882813,96.7161,127.24403754882812,96.7161,123.99923754882812ZM98.2838,129.48623754882811C98.2838,134.41713754882812,101.328,137.55263754882813,105.138,137.55263754882813C107.462,137.55263754882813,109.112,136.48623754882811,109.987,135.11903754882812L109.987,137.32473754882812L114.772,137.32473754882812L114.772,121.70233754882813L109.987,121.70233754882813L109.987,123.91713754882812C109.148,122.54083754882812,107.49,121.48363754882813,105.165,121.48363754882813C101.328,121.48363754882813,98.2838,124.56433754882812,98.2838,129.48623754882811ZM109.987,129.51353754882814C109.987,132.0109375488281,108.392,133.37813754882814,106.569,133.37813754882814C104.773,133.37813754882814,103.151,131.9836375488281,103.151,129.48623754882811C103.151,126.99793754882813,104.773,125.64893754882813,106.569,125.64893754882813C108.392,125.64893754882813,109.987,127.02523754882813,109.987,129.51353754882814ZM119.238,131.89243754882813C119.238,135.95753754882813,121.508,137.32473754882812,124.753,137.32473754882812L127.186,137.32473754882812L127.186,133.2687375488281L125.482,133.2687375488281C124.415,133.2687375488281,124.023,132.87683754882812,124.023,131.9562375488281L124.023,125.67633754882813L127.159,125.67633754882813L127.159,121.70233754882813L124.023,121.70233754882813L124.023,117.89243754882813L119.238,117.89243754882813L119.238,121.70233754882813L117.333,121.70233754882813L117.333,125.67633754882813L119.238,125.67633754882813L119.238,131.89243754882813ZM129.565,137.32473754882812L134.35,137.32473754882812L134.35,128.84813754882813C134.35,126.71533754882813,135.526,125.53953754882812,137.349,125.53953754882812C139.172,125.53953754882812,140.348,126.71533754882813,140.348,128.84813754882813L140.348,137.32473754882812L145.105,137.32473754882812L145.105,128.20103754882814C145.105,123.99923754882812,142.727,121.53823754882812,139.172,121.53823754882812C137.012,121.53823754882812,135.307,122.45883754882813,134.35,123.80783754882813L134.35,116.60733754882813L129.565,116.60733754882813L129.565,137.32473754882812Z" fill="#2F2F2F" fill-opacity="1"/></g></g></svg>